<svg width="1920" height="1080" viewBox="0 0 1920 1080" fill="none" xmlns="http://www.w3.org/2000/svg" xmlns:xlink="http://www.w3.org/1999/xlink"> <rect width="1920" height="1080" fill="white"/> <!-- Абстрактные волны/технологичные формы --> <path d="M0 542C150 642 300 542 450 542C600 542 750 642 900 542C1050 442 1200 342 1350 442C1500 542 1650 742 1800 642C1950 542 2100 242 1920 242L1920 1080H0V542Z" fill="#6EB2FF" fill-opacity="0.3"/> <!-- Круги с градиентом --> <circle cx="300" cy="300" r="200" fill="url(#circleGradient1)" fill-opacity="0.15"/> <circle cx="1600" cy="800" r="250" fill="url(#circleGradient2)" fill-opacity="0.15"/> <!-- Технологичные линии --> <path d="M0 800L300 600L600 900L900 400L1200 700L1500 300L1800 500L1920 400" stroke="#0077FF" stroke-width="2" stroke-opacity="0.2" stroke-linecap="round"/> <!-- Логотип/название (опционально) --> <text x="960" y="540" font-family="Arial, sans-serif" font-size="72" font-weight="bold" fill="#0077FF" text-anchor="middle" opacity="0.1">ТехноМаркет</text> <!-- Градиенты --> <defs> <linearGradient id="circleGradient1" x1="100" y1="100" x2="500" y2="500" gradientUnits="userSpaceOnUse"> <stop stop-color="#0077FF"/> <stop offset="1" stop-color="#6EB2FF"/> </linearGradient> <linearGradient id="circleGradient2" x1="1350" y1="550" x2="1850" y2="1050" gradientUnits="userSpaceOnUse"> <stop stop-color="#6EB2FF"/> <stop offset="1" stop-color="#0077FF"/> </linearGradient> </defs></svg>